<?xml version="1.0" encoding="UTF-8" standalone="no"?>
<svg
   fill="none"
   viewBox="0 0 24 24"
   stroke-width="1.5"
   stroke="currentColor"
   class="size-6"
   version="1.1"
   id="svg2"
   sodipodi:docname="eye.svg"
   inkscape:version="1.4 (e7c3feb100, 2024-10-09)"
   xmlns:inkscape="http://www.inkscape.org/namespaces/inkscape"
   xmlns:sodipodi="http://sodipodi.sourceforge.net/DTD/sodipodi-0.dtd"
   xmlns="http://www.w3.org/2000/svg"
   xmlns:svg="http://www.w3.org/2000/svg">
  <defs
     id="defs2" />
  <sodipodi:namedview
     id="namedview2"
     pagecolor="#ffffff"
     bordercolor="#000000"
     borderopacity="0.25"
     inkscape:showpageshadow="2"
     inkscape:pageopacity="0.0"
     inkscape:pagecheckerboard="0"
     inkscape:deskcolor="#d1d1d1"
     inkscape:zoom="33.458333"
     inkscape:cx="11.985056"
     inkscape:cy="11.970112"
     inkscape:window-width="2560"
     inkscape:window-height="1011"
     inkscape:window-x="0"
     inkscape:window-y="32"
     inkscape:window-maximized="1"
     inkscape:current-layer="svg2" />
  <path
     stroke-linecap="round"
     stroke-linejoin="round"
     d="M2.036 12.322a1.012 1.012 0 0 1 0-.639C3.423 7.51 7.36 4.5 12 4.5c4.638 0 8.573 3.007 9.963 7.178.07.207.07.431 0 .639C20.577 16.49 16.64 19.5 12 19.5c-4.638 0-8.573-3.007-9.963-7.178Z"
     id="path1" />
  <path
     stroke-linecap="round"
     stroke-linejoin="round"
     d="M15 12a3 3 0 1 1-6 0 3 3 0 0 1 6 0Z"
     id="path2" />
  <path
     style="opacity:0.999568;fill:#51646e;stroke:#51646e;stroke-width:0.0557111"
     d="M 11.118306,20.202219 C 7.4595796,19.878756 4.2940044,17.922729 2.3908359,14.809465 1.9498387,14.088067 1.379248,12.804753 1.2839828,12.320043 1.2024312,11.905109 1.2931318,11.480171 1.6354983,10.67317 2.9133749,7.6610517 5.3821988,5.3673399 8.4433375,4.3482056 10.905417,3.5285142 13.498114,3.5752824 15.951335,4.4836383 c 0.497315,0.1841409 1.490509,0.6712036 1.919885,0.9415115 1.568141,0.987204 2.797566,2.2255971 3.738116,3.7653857 0.441324,0.7224983 1.011479,2.0050315 1.106681,2.4894215 0.05275,0.268374 0.02301,0.628985 -0.07569,0.917801 -0.158607,0.464137 -0.410463,1.051571 -0.65352,1.524284 -0.622502,1.210685 -1.35403,2.172641 -2.380333,3.13013 -1.709032,1.59444 -3.948455,2.62709 -6.306351,2.908005 -0.479812,0.05716 -1.736808,0.08138 -2.181819,0.04204 z m 1.942715,-1.49405 c 3.156357,-0.361271 5.873934,-2.152315 7.440717,-4.903872 0.315923,-0.554818 0.778461,-1.628972 0.778461,-1.807823 0,-0.12073 -0.270778,-0.797499 -0.524753,-1.311542 C 20.292623,9.7481828 19.762476,8.9883622 19.068493,8.2671452 17.422268,6.5563165 15.403918,5.5621059 13.016189,5.2858669 12.592221,5.2368175 11.40709,5.2368708 10.983811,5.2859584 7.9139277,5.6419711 5.3287875,7.2631768 3.6979741,9.8550877 3.3199255,10.455934 2.7198007,11.771871 2.7198007,12 c 0,0.123901 0.2677398,0.794875 0.5247538,1.315068 0.4786879,0.96886 0.9933015,1.698509 1.7467282,2.476615 1.7102487,1.766269 3.9050648,2.777094 6.4259033,2.959457 0.272272,0.0197 1.340229,-0.0082 1.643835,-0.04297 z"
     id="path3" />
  <path
     style="opacity:0.999568;fill:#51646e;stroke:#51646e;stroke-width:0.0557111"
     d="m 11.28269,15.660848 c -0.422302,-0.0866 -0.834992,-0.242446 -1.164319,-0.439695 -0.9478781,-0.567729 -1.5937595,-1.494962 -1.7932395,-2.574392 -0.060084,-0.325128 -0.060084,-0.968394 0,-1.293522 0.2866231,-1.5509802 1.4771273,-2.7414844 3.0281075,-3.0281075 0.325113,-0.060081 0.968389,-0.060083 1.293522,-4.5e-6 0.772616,0.1427667 1.4251,0.4864605 1.983376,1.044736 0.726392,0.726392 1.090909,1.605227 1.090909,2.630137 0,1.02491 -0.364517,1.903745 -1.090909,2.630137 -0.558276,0.558276 -1.21076,0.901969 -1.983376,1.044736 -0.34803,0.06431 -1.01553,0.05745 -1.364071,-0.01403 z m 1.374844,-1.494076 c 0.745352,-0.237039 1.280316,-0.775577 1.514067,-1.524182 0.05939,-0.190207 0.06999,-0.287536 0.06999,-0.64259 0,-0.355054 -0.0106,-0.452383 -0.06999,-0.64259 C 13.865039,10.37562 13.014456,9.743462 12,9.743462 c -1.262102,0 -2.256538,0.994436 -2.256538,2.256538 0,1.078923 0.714349,1.968329 1.778331,2.214125 0.270817,0.06256 0.868473,0.03765 1.135741,-0.04735 z"
     id="path4" />
  <path
     style="opacity:0.999568;fill:#9e9e9e;stroke:#9e9e9e;stroke-width:0.0557111"
     d="m 11.058531,20.215692 c -0.05753,-0.0074 -0.266003,-0.03351 -0.463263,-0.05812 C 9.679126,20.043293 8.6197427,19.759084 7.6811956,19.375792 7.3902773,19.256984 6.5888118,18.865035 6.410959,18.754594 6.3452055,18.713763 6.2712329,18.671092 6.2465754,18.659768 6.0900664,18.587892 4.9658302,17.799158 4.8717311,17.695213 4.8635119,17.686133 4.7962641,17.62656 4.7222915,17.562828 3.7109763,16.691513 2.7981549,15.584517 2.217756,14.525529 1.8719928,13.894655 1.4793792,13.020097 1.3308528,12.549928 1.1817309,12.077873 1.2436345,11.603065 1.5546132,10.833659 2.190358,9.2607345 3.2461873,7.7557743 4.5027004,6.6315073 5.0326396,6.1573435 5.2096908,6.0204714 5.8163226,5.6159924 6.2953492,5.2965958 6.5228578,5.1646334 6.9788295,4.9417009 8.7837538,4.059242 10.52046,3.6918077 12.510629,3.7713401 c 1.068412,0.042697 2.077981,0.2311792 3.118416,0.582196 0.478184,0.1613277 0.689195,0.253975 1.496734,0.6571621 1.683614,0.8405935 3.15364,2.1554705 4.255356,3.8062384 0.483651,0.7246828 1.064696,1.9134984 1.28996,2.6392524 0.07527,0.242518 0.08041,0.290585 0.06548,0.612702 -0.02019,0.435548 -0.112551,0.714486 -0.54944,1.659391 -0.357978,0.774235 -0.946765,1.743247 -1.339174,2.203981 -0.04994,0.05863 -0.119911,0.144186 -0.155492,0.190113 -0.274608,0.354451 -0.940095,1.024916 -1.474535,1.485565 -1.544832,1.331531 -3.671685,2.267522 -5.798257,2.55171 -0.333535,0.04457 -2.119422,0.08696 -2.361145,0.05604 z m 2.316313,-1.565851 c 1.803424,-0.270066 3.381715,-0.962099 4.797012,-2.103343 0.299995,-0.241906 0.937998,-0.866614 1.224569,-1.199051 0.696188,-0.807615 1.271909,-1.7699 1.689101,-2.823233 0.143895,-0.363308 0.168934,-0.453825 0.157086,-0.567871 C 21.211763,11.659417 20.644197,10.43022 20.248442,9.803238 19.466479,8.5643992 18.353164,7.4649149 17.091826,6.685838 15.989167,6.004771 14.768688,5.5662767 13.359901,5.3450305 12.978841,5.2851862 12.816484,5.2769616 12.014944,5.2768983 11.04113,5.2768216 10.788445,5.2998693 10.027397,5.4581859 7.584128,5.9664455 5.4918089,7.3407832 4.0152898,9.4072329 3.6358976,9.9382079 3.1584649,10.836077 2.8829475,11.536737 c -0.1721364,0.437755 -0.1706752,0.484274 0.031103,0.990208 0.5527589,1.385973 1.2781554,2.469886 2.3391643,3.495261 1.5823454,1.529202 3.5377011,2.433826 5.8053162,2.685768 0.440406,0.04893 1.835111,0.01393 2.316313,-0.05813 z"
     id="path5" />
  <path
     style="opacity:0.999568;fill:#9e9e9e;stroke:#9e9e9e;stroke-width:0.0557111"
     d="M 11.447074,15.701996 C 11.120489,15.654312 10.614599,15.500607 10.359186,15.371462 9.343283,14.857788 8.5545383,13.82986 8.3255154,12.721089 c -0.063416,-0.307015 -0.063416,-1.135162 0,-1.442177 0.1504441,-0.728347 0.5003544,-1.37062 1.0415655,-1.9118311 0.5604408,-0.5604408 1.1741161,-0.8918186 1.9383071,-1.0466634 0.185257,-0.037538 0.357931,-0.044705 0.80879,-0.033572 0.696161,0.017191 0.949917,0.076256 1.49977,0.3490922 0.629414,0.3123143 1.13041,0.7548663 1.526484,1.3484102 0.410808,0.6156241 0.580742,1.2046431 0.580494,2.0120951 -1.89e-4,0.618235 -0.121892,1.193589 -0.346806,1.639535 -0.242878,0.481562 -0.788703,1.11034 -1.237134,1.425148 -0.42033,0.295082 -0.915779,0.510107 -1.410944,0.612352 -0.212352,0.04385 -1.046577,0.06245 -1.278968,0.02852 z m 1.30791,-1.589089 c 0.340052,-0.126063 0.582588,-0.280271 0.83012,-0.527803 0.244964,-0.244964 0.398786,-0.48546 0.530948,-0.83012 0.09291,-0.242292 0.09467,-0.25635 0.09467,-0.754984 0,-0.498634 -0.0018,-0.512692 -0.09467,-0.754984 -0.132144,-0.344614 -0.285872,-0.584977 -0.531569,-0.831143 -0.866476,-0.8681273 -2.302958,-0.8682666 -3.170917,-3.07e-4 -0.8672235,0.867223 -0.8672859,2.312265 -1.37e-4,3.171362 0.227363,0.225251 0.470865,0.388418 0.734765,0.492352 0.341939,0.134669 0.44205,0.149851 0.911582,0.13824 0.411658,-0.01018 0.468508,-0.01857 0.695208,-0.102613 z"
     id="path6" />
</svg>
