<?xml version="1.0" encoding="UTF-8" standalone="no"?>
<svg
   fill="none"
   viewBox="0 0 24 24"
   stroke-width="1.5"
   stroke="currentColor"
   class="size-6"
   version="1.1"
   id="svg1"
   sodipodi:docname="eye_slash.svg"
   inkscape:version="1.4 (e7c3feb100, 2024-10-09)"
   xmlns:inkscape="http://www.inkscape.org/namespaces/inkscape"
   xmlns:sodipodi="http://sodipodi.sourceforge.net/DTD/sodipodi-0.dtd"
   xmlns="http://www.w3.org/2000/svg"
   xmlns:svg="http://www.w3.org/2000/svg">
  <defs
     id="defs1" />
  <sodipodi:namedview
     id="namedview1"
     pagecolor="#ffffff"
     bordercolor="#000000"
     borderopacity="0.25"
     inkscape:showpageshadow="2"
     inkscape:pageopacity="0.0"
     inkscape:pagecheckerboard="0"
     inkscape:deskcolor="#d1d1d1"
     inkscape:zoom="33.458333"
     inkscape:cx="11.985056"
     inkscape:cy="11.970112"
     inkscape:window-width="2560"
     inkscape:window-height="1011"
     inkscape:window-x="0"
     inkscape:window-y="32"
     inkscape:window-maximized="1"
     inkscape:current-layer="svg1" />
  <path
     stroke-linecap="round"
     stroke-linejoin="round"
     d="M3.98 8.223A10.477 10.477 0 0 0 1.934 12C3.226 16.338 7.244 19.5 12 19.5c.993 0 1.953-.138 2.863-.395M6.228 6.228A10.451 10.451 0 0 1 12 4.5c4.756 0 8.773 3.162 10.065 7.498a10.522 10.522 0 0 1-4.293 5.774M6.228 6.228 3 3m3.228 3.228 3.65 3.65m7.894 7.894L21 21m-3.228-3.228-3.65-3.65m0 0a3 3 0 1 0-4.243-4.243m4.242 4.242L9.88 9.88"
     id="path1" />
  <path
     style="opacity:0.999568;fill:#51646e;stroke:#51646e;stroke-width:0.0557111"
     d="M 11.13325,20.201925 C 8.4938977,19.991468 6.045814,18.875884 4.158477,17.023543 3.2037194,16.08649 2.5275882,15.161586 1.9430396,13.992968 1.5815667,13.270319 1.1955168,12.236858 1.1955168,11.991839 c 0,-0.05511 0.066077,-0.297737 0.1468373,-0.539171 C 1.7722384,10.167531 2.402881,9.0166325 3.2634124,7.9468127 3.4443405,7.7218815 3.5316544,7.6393289 3.6521282,7.5792943 3.8524149,7.4794872 4.1069061,7.4735341 4.2943442,7.5642713 4.5621146,7.6938967 4.7521228,8.0413113 4.7062541,8.3174153 4.6769969,8.4935298 4.6254061,8.5840274 4.3788918,8.8916563 3.9208628,9.4632373 3.501891,10.131654 3.1830322,10.799499 2.9628132,11.260745 2.7198007,11.890531 2.7198007,12 c 0,0.10779 0.2418028,0.734002 0.4630664,1.199231 0.8024063,1.687142 2.1153866,3.147309 3.7093053,4.125123 2.2285838,1.36716 4.9657016,1.785765 7.4911966,1.145676 0.529544,-0.134213 0.725717,-0.114906 0.964726,0.09495 0.371759,0.326409 0.306605,0.935445 -0.124743,1.16605 -0.330141,0.176499 -1.468233,0.399623 -2.413246,0.47312 -0.4384,0.0341 -1.234625,0.03304 -1.676856,-0.0022 z"
     id="path2" />
  <path
     style="opacity:0.999568;fill:#51646e;stroke:#51646e;stroke-width:0.0557111"
     d="M 20.712329,21.666901 C 20.508826,21.575657 2.4461473,3.5174672 2.3434775,3.3026152 2.2070501,3.0171202 2.2611083,2.7281489 2.4946286,2.4946286 2.6574068,2.3318505 2.8016023,2.2710335 3.0221475,2.2721383 c 0.2740942,0.00137 0.3129576,0.034353 1.8496769,1.5696594 L 6.3214819,5.2901224 6.963979,4.9687976 c 1.5384305,-0.7693981 3.025868,-1.1429768 4.752086,-1.1935145 2.650068,-0.077585 5.222146,0.7946606 7.343363,2.4902881 0.405492,0.3241357 1.181719,1.089664 1.544533,1.5232444 0.909787,1.0872371 1.596406,2.3091944 2.047183,3.6433144 0.165433,0.489614 0.172666,0.55469 0.09328,0.839207 -0.270532,0.969527 -0.916812,2.28065 -1.595419,3.236662 -0.505719,0.712452 -1.244464,1.515498 -1.908652,2.074785 -0.176713,0.148803 -0.321295,0.278389 -0.321295,0.28797 0,0.0096 0.599881,0.615867 1.333069,1.347305 1.422986,1.419588 1.475484,1.482176 1.476103,1.759793 4.93e-4,0.22111 -0.06027,0.36493 -0.222855,0.527519 -0.226535,0.226536 -0.516387,0.285574 -0.793042,0.16153 z m -2.555096,-5.083519 c 0.351354,-0.279374 1.165284,-1.097886 1.461208,-1.469433 0.295939,-0.371567 0.673251,-0.931307 0.900318,-1.335618 0.316206,-0.563029 0.76144,-1.605911 0.76144,-1.783541 0,-0.224716 -0.605909,-1.551001 -0.977517,-2.1397023 C 18.887673,7.6134288 16.726898,6.0671172 14.194525,5.4839181 12.281878,5.0434405 10.210683,5.1999036 8.4009143,5.9215819 7.9612964,6.0968877 7.4621042,6.3382255 7.4502808,6.3811723 7.44574,6.3976663 8.0003794,6.9692727 8.6828127,7.6514089 l 1.2407883,1.2402474 0.09673,-0.057429 C 10.660821,8.4539626 11.284765,8.2789539 12,8.2789539 c 1.023512,0 1.904736,0.3655078 2.630137,1.0909091 0.726392,0.726392 1.090909,1.605227 1.090909,2.630137 0,0.718059 -0.173482,1.336563 -0.555273,1.979677 l -0.05743,0.09674 1.359777,1.360298 c 0.747877,0.748164 1.373427,1.360298 1.39011,1.360298 0.01668,0 0.151234,-0.09613 0.299002,-0.213629 z m -4.008032,-3.882769 c 0.122288,-0.354891 0.143139,-0.85961 0.05065,-1.225949 -0.204032,-0.808137 -0.761934,-1.397925 -1.55726,-1.6462647 -0.19342,-0.060395 -0.283587,-0.069747 -0.657534,-0.068195 -0.388783,0.00161 -0.458624,0.010165 -0.678757,0.083115 -0.13496,0.044724 -0.254399,0.095907 -0.265421,0.1137402 -0.02306,0.037312 2.945366,3.0193175 2.991417,3.0051015 0.01648,-0.0051 0.06909,-0.122786 0.116906,-0.261548 z"
     id="path3" />
  <path
     style="opacity:0.999568;fill:#9e9e9e;stroke:#9e9e9e;stroke-width:0.0557111"
     d="M 20.820399,21.722159 C 20.655775,21.677683 18.974123,20.021332 11.20797,12.254351 4.5779405,5.6236149 2.4021132,3.423701 2.3233377,3.2713661 2.1634178,2.9621151 2.3181893,2.5537084 2.6744184,2.3449443 2.7736259,2.2868048 2.84786,2.2686297 2.9964587,2.2660975 3.1693172,2.2631519 3.2049052,2.2733183 3.3357575,2.3630253 3.4899962,2.468765 4.1011479,3.056554 5.4894761,4.4344128 L 6.3313809,5.2699685 6.8643205,5.0082003 c 1.3892371,-0.6823627 2.423861,-1.0053444 3.7458915,-1.1693669 0.586623,-0.072782 1.948364,-0.08965 2.500614,-0.030975 1.651202,0.175433 3.064819,0.6300202 4.458058,1.4336098 0.348275,0.2008771 0.590985,0.3574473 1.140954,0.7360194 0.444458,0.3059429 1.620093,1.4418163 2.041754,1.9726996 0.864408,1.0883139 1.495119,2.2357438 1.907381,3.4700288 0.187999,0.562856 0.186279,0.624651 -0.03523,1.265664 -0.307273,0.889185 -0.892409,2.011114 -1.489492,2.855926 -0.442228,0.625709 -1.289333,1.545191 -1.925714,2.090247 -0.142775,0.122286 -0.259591,0.22997 -0.259591,0.239296 0,0.0093 0.391311,0.406908 0.86958,0.883515 1.018357,1.014814 1.735517,1.769549 1.842524,1.939057 0.105326,0.166848 0.103089,0.445532 -0.0051,0.630071 -0.182707,0.311765 -0.534649,0.479469 -0.835589,0.398167 z m -2.673947,-5.156237 c 0.325799,-0.262663 0.924359,-0.845776 1.235413,-1.203531 0.514101,-0.591286 0.989809,-1.308169 1.346533,-2.0292 0.243662,-0.492506 0.527891,-1.208018 0.527891,-1.328904 0,-0.154527 -0.197622,-0.64739 -0.529019,-1.319355 C 20.243315,9.7036281 19.749232,9.0022641 18.993774,8.2241874 18.156847,7.362203 17.381138,6.7941717 16.317279,6.2642616 15.035244,5.6256772 13.74787,5.3071837 12.294887,5.2691307 10.841942,5.2310786 9.5828746,5.455088 8.310871,5.977955 7.8984921,6.1474665 7.4719801,6.3564574 7.4719801,6.3890117 c 0,0.01222 0.555161,0.5772574 1.2336906,1.2556393 0.7758761,0.7757072 1.2444801,1.2232047 1.2627647,1.2058892 0.015991,-0.015143 0.1366706,-0.081912 0.2681776,-0.1483741 0.601578,-0.3040331 0.937396,-0.3904002 1.611382,-0.4144236 0.526852,-0.018778 0.831806,0.013196 1.236918,0.1296903 0.551415,0.1585662 1.073404,0.4801895 1.545434,0.9522202 0.759547,0.759547 1.090699,1.558158 1.090699,2.630347 0,0.67173 -0.123039,1.176116 -0.430157,1.763387 l -0.156302,0.29888 1.346656,1.352428 c 0.74066,0.743836 1.362178,1.352428 1.381151,1.352428 0.01897,0 0.146799,-0.09054 0.284058,-0.201201 z M 14.138226,12.673226 C 14.276495,12.232724 14.26525,11.666343 14.109778,11.24034 13.988073,10.906862 13.832825,10.662617 13.585104,10.414896 13.34014,10.169932 13.099644,10.01611 12.754984,9.8839482 12.512192,9.7908482 12.499662,9.789292 12,9.7901919 c -0.46738,8.419e-4 -0.524718,0.00696 -0.715544,0.076402 -0.114097,0.041518 -0.211211,0.087958 -0.215808,0.1032012 -0.0046,0.015243 0.65717,0.6934679 1.470592,1.5071669 1.184626,1.185027 1.484851,1.47053 1.508596,1.43462 0.0163,-0.02466 0.05698,-0.131918 0.09039,-0.238356 z"
     id="path4" />
  <path
     style="opacity:0.999568;fill:#9e9e9e;stroke:#9e9e9e;stroke-width:0.0557111"
     d="M 10.825434,20.189017 C 9.8117772,20.073947 8.788139,19.82564 7.9744792,19.497452 7.7885156,19.422444 7.5825655,19.339939 7.516812,19.314108 7.2729705,19.218317 6.4800817,18.797165 6.1078608,18.565727 5.3049654,18.066505 4.6505622,17.533295 3.915169,16.779112 3.3615725,16.211371 2.7080419,15.397853 2.4918075,15.007305 2.4610394,14.951734 2.422343,14.884486 2.4058155,14.857865 2.0325433,14.256644 1.5381408,13.197842 1.3128411,12.517174 1.1642776,12.068339 1.1659793,11.955857 1.3289312,11.453631 1.5353179,10.817537 1.840313,10.128157 2.2111621,9.4595269 2.4785808,8.9773782 3.1152404,8.0713744 3.4012211,7.7660033 3.5668534,7.5891405 3.7751045,7.4967931 4.0058239,7.4978966 c 0.2212606,0.00106 0.3454317,0.054215 0.4831454,0.2068325 0.175411,0.1943942 0.2161043,0.2939907 0.2173073,0.5318602 9.95e-4,0.1966888 -0.00713,0.2240412 -0.1146922,0.3861589 C 4.5279145,8.7187102 4.3956362,8.8981288 4.2976322,9.0214563 3.7238739,9.7434708 3.1315842,10.822918 2.8218219,11.71112 2.7089716,12.034703 2.70798,12.027343 2.941967,12.602803 c 0.5134371,1.262729 1.1653832,2.258565 2.1067612,3.218038 1.5555339,1.585433 3.4491166,2.529207 5.7196308,2.8507 0.276698,0.03918 0.574383,0.05186 1.231641,0.05245 1.064669,9.67e-4 1.286183,-0.02526 2.525529,-0.298979 0.257749,-0.05693 0.519732,-0.05541 0.644359,0.0037 0.125317,0.05947 0.332613,0.281352 0.389054,0.416434 0.05196,0.124365 0.05484,0.339739 0.0067,0.500448 -0.05262,0.175637 -0.269191,0.380906 -0.487818,0.462365 -0.26196,0.09761 -0.880006,0.232982 -1.478814,0.32392 -0.465108,0.07063 -0.627314,0.0805 -1.464508,0.08913 -0.668219,0.0069 -1.048159,-0.0024 -1.309062,-0.03203 z"
     id="path5" />
</svg>
