<?xml version="1.0" encoding="UTF-8" standalone="no"?>
<svg
   fill="none"
   viewBox="0 0 24 24"
   stroke-width="1.5"
   stroke="currentColor"
   class="size-6"
   version="1.1"
   id="svg1"
   sodipodi:docname="save.svg"
   inkscape:export-filename="save.svg"
   inkscape:export-xdpi="96"
   inkscape:export-ydpi="96"
   inkscape:version="1.4 (e7c3feb100, 2024-10-09)"
   xmlns:inkscape="http://www.inkscape.org/namespaces/inkscape"
   xmlns:sodipodi="http://sodipodi.sourceforge.net/DTD/sodipodi-0.dtd"
   xmlns="http://www.w3.org/2000/svg"
   xmlns:svg="http://www.w3.org/2000/svg">
  <defs
     id="defs1" />
  <sodipodi:namedview
     id="namedview1"
     pagecolor="#ffffff"
     bordercolor="#000000"
     borderopacity="0.25"
     inkscape:showpageshadow="2"
     inkscape:pageopacity="0.0"
     inkscape:pagecheckerboard="0"
     inkscape:deskcolor="#d1d1d1"
     inkscape:zoom="32"
     inkscape:cx="14.796875"
     inkscape:cy="13.609375"
     inkscape:window-width="2560"
     inkscape:window-height="1011"
     inkscape:window-x="0"
     inkscape:window-y="32"
     inkscape:window-maximized="1"
     inkscape:current-layer="svg1" />
  <g
     id="g3">
    <path
       style="opacity:0.999568;fill:#51646e;fill-opacity:1;stroke:#51646e;stroke-width:0.05825;stroke-dasharray:none;stroke-opacity:1"
       d="m 7.725155,20.315805 c -0.09101,-0.03143 -0.217571,-0.09897 -0.28125,-0.15009 -0.111029,-0.08912 -6.115832,-8.71208 -6.262436,-8.992921 -0.09222,-0.176664 -0.109289,-0.466727 -0.03977,-0.676013 0.07709,-0.232108 0.34173,-0.496743 0.573837,-0.573837 0.29274,-0.09723 0.600136,-0.04171 0.864805,0.156188 0.05301,0.03964 1.311817,1.828055 2.812501,3.995792 1.494096,2.15822 2.724839,3.924271 2.734985,3.924557 0.01015,2.85e-4 3.012153,-3.100783 6.671127,-6.891264 7.380753,-7.6460234 6.78321,-7.061342 7.216676,-7.061342 0.737737,0 1.160773,0.8034096 0.743059,1.4111817 C 22.64767,5.6195806 8.765528,20.007302 8.568969,20.164552 8.313837,20.368661 8.027024,20.420072 7.725155,20.315805 Z"
       id="path3"
       inkscape:export-filename="path3.svg"
       inkscape:export-xdpi="96"
       inkscape:export-ydpi="96" />
  </g>
</svg>
