<?xml version="1.0" encoding="UTF-8" standalone="no"?>
<!-- Created with Inkscape (http://www.inkscape.org/) -->

<svg
   version="1.1"
   id="svg1"
   width="468.70279"
   height="476.66342"
   viewBox="0 0 468.70279 476.66342"
   xmlns="http://www.w3.org/2000/svg"
   xmlns:svg="http://www.w3.org/2000/svg">
  <defs
     id="defs1" />
  <g
     id="g1"
     transform="translate(-24.6854,-16.568359)">
    <g
       id="g8"
       transform="translate(0.6756329,-0.47504828)"
       style="display:inline">
      <path
         style="display:inline;opacity:0.999568;fill:#28b5f4;fill-opacity:1;stroke:none;stroke-width:1.864"
         d="m 102.00977,19.043407 325,49.5 -289.5,351.000003 -95.000003,-14 c 0,0 -22.5,-3 -17,-34.5 5.5,-31.5 51,-335.000003 51,-335.000003 0,0 8,-20 25.500003,-17 z"
         id="path4" />
      <path
         style="display:inline;opacity:0.999568;fill:#fdd53e;stroke:none;stroke-width:1.864"
         d="M 117.88111,105.60885 431.30364,65.243827 c 0,0 20.77611,-1.78081 23.74413,20.776114 2.96801,22.556919 37.99061,279.587139 37.99061,279.587139 0,0 13.05927,84.88527 -84.29167,96.75733 -97.35093,11.87207 -227.94365,30.27377 -227.94365,30.27377 0,0 -33.24178,8.31044 -36.8034,-22.55693 -3.56162,-30.86737 -44.520249,-340.13467 -44.520249,-340.13467 0,0 -0.593603,-17.21449 18.401699,-24.33773 z"
         id="path2"
         transform="translate(-0.6756329,0.47504828)" />
      <path
         id="path12"
         style="display:inline;fill:#28b5f4"
         d="m 99.500001,18.781689 c -2.75,-0.01123 -6.919135,0.760922 -9.265625,1.714843 -5.107229,2.076247 -11.842032,9.386675 -13.263671,14.398438 -1.518267,5.352407 -52.97234,344.12278 -52.960938,348.69141 0.02148,8.60793 7.813016,19.08689 15.990234,21.50586 1.925,0.56945 23.3,4.10298 47.5,7.85351 C 136.44693,420.53157 136,420.47893 136,418.79731 c 0,-0.66183 -8.325,-65.13925 -18.5,-143.2832 -10.175,-78.14396 -18.495633,-144.09015 -18.490233,-146.54687 0.01888,-8.63282 6.444113,-18.15526 14.541013,-21.54883 1.67836,-0.70343 48.70336,-7.19169 104.5,-14.417971 55.79664,-7.226287 102.08138,-13.345506 102.85352,-13.597657 0.9267,-0.302622 -1.51489,-3.439516 -7.18164,-9.230468 -9.41284,-9.619149 -10.99792,-12.884498 -8.42969,-17.359375 1.54329,-2.689029 1.51904,-2.820516 -0.59375,-3.314454 C 297.57181,47.832207 103.61621,18.798489 99.500001,18.781689 Z" />
      <path
         id="path11"
         style="display:inline;fill:#f8c011"
         d="m 487.22085,333.12739 c -1.57559,-0.0703 -5.5876,0.70114 -12.4707,2.37891 -13.89226,3.38627 -26.46777,5.67999 -40.8086,7.44336 -11.55485,1.4208 -19.72533,4.34861 -28.49023,10.21094 -8.56091,5.72588 -14.39132,12.55669 -19.09766,22.375 -5.13654,10.71579 -6.71094,19.72522 -5.76171,32.96484 1.20151,16.75844 0.6455,32.90752 -1.58008,45.92578 -1.10696,6.47501 -2.01172,11.95349 -2.01172,12.17383 0,0.68867 1.88497,0.49417 26,-2.66992 33.04405,-4.33565 43.25736,-7.94613 59.36133,-20.98438 13.80378,-11.17595 23.31504,-26.30453 28.24804,-44.93164 2.80719,-10.60102 2.80422,-22.91581 -0.01,-43.92578 -1.42984,-10.6765 -2.59961,-19.95136 -2.59961,-20.61133 0,-0.20778 -0.2541,-0.32617 -0.7793,-0.34961 z" />
      <path
         id="path10"
         style="display:inline;fill:#fda001"
         d="m 377.1271,138.63716 c -8.37837,-0.30297 -30.481,2.67483 -93.48047,10.91211 -89.15586,11.65726 -93.45951,12.31423 -95.25,14.52539 -3.2439,4.00605 -1.97133,10.31283 2.43946,12.08594 1.20155,0.48297 3.53554,0.67746 5.18554,0.43164 1.65,-0.24581 43.05,-5.61818 92,-11.9375 48.95,-6.31932 90.20874,-11.9812 91.68555,-12.58204 3.54365,-1.4416 5.26701,-6.18859 3.54883,-9.77343 -1.01465,-2.11699 -1.10188,-3.48033 -6.12891,-3.66211 z m 46.49414,49.53125 c -3.67961,0 -262.81496,33.77608 -265.3789,34.58984 -4.66936,1.482 -5.38474,10.76279 -1.02539,13.29883 0.99299,0.57766 3.22087,1.06533 4.95117,1.08203 2.751,0.0266 34.01371,-3.84495 67.85351,-8.40234 12.86518,-1.73262 34.41428,-4.53717 123.5,-16.07227 78.62403,-10.18049 72.78231,-9.2784 75.10547,-11.60156 4.38218,-4.38218 1.07747,-12.89453 -5.00586,-12.89453 z m 10.63867,56.56445 c -2.38051,-1.55976 -27.35745,1.50952 -247.20312,30.36524 -19.53053,2.56347 -22.16226,3.12711 -23.75,5.08789 -2.71475,3.35256 -2.32015,8.41681 0.84961,10.91015 1.44917,1.13992 3.13667,2.07131 3.75,2.07031 1.01608,-0.002 20.16259,-2.47375 96.61523,-12.4746 14.575,-1.90657 58,-7.54142 96.5,-12.52149 38.5,-4.98008 71.19876,-9.53079 72.66407,-10.11328 5.6382,-2.24127 5.96345,-9.79305 0.57421,-13.32422 z m 3.96289,54.43555 c -5.25578,0 -264.0917,34.1387 -265.81054,35.05859 -4.17562,2.23473 -5.12169,8.24384 -1.85156,11.75391 1.39987,1.50259 3.21869,2.1875 5.80273,2.1875 3.35152,0 26.19834,-2.86779 103.6582,-13.01172 12.65,-1.65661 54.05,-7.04427 92,-11.97266 67.90681,-8.81875 69.03565,-9.00076 71.25,-11.54297 1.2375,-1.42072 2.25,-3.70293 2.25,-5.07226 0,-3.16363 -4.17755,-7.40039 -7.29883,-7.40039 z m -176.91796,79.89258 c -6.10394,0.0975 -17.4912,1.564 -39.78321,4.48828 -40.55676,5.32027 -41.49423,5.49329 -43.72265,8.08398 -2.95262,3.43262 -2.88916,7.01515 0.17773,10.08203 1.35,1.35 3.0375,2.45216 3.75,2.45117 1.52315,-0.002 58.54671,-7.26647 73.79102,-9.40039 9.12379,-1.27717 10.7911,-1.81053 12.75,-4.08789 2.54414,-2.95774 2.74257,-4.34434 1.125,-7.89453 -1.16164,-2.54951 -1.98396,-3.82019 -8.08789,-3.72265 z" />
      <path
         id="path9"
         style="display:inline;fill:#e33834"
         d="m 371.50015,17.043408 c -6.19499,0 -11.30489,3.031396 -19.97656,11.847656 -7.07939,7.197431 -8.38538,8.109375 -11.61329,8.109375 -16.94757,0 -37.80012,12.538046 -35.51953,21.357422 0.30469,1.178263 5.7286,7.317578 12.05274,13.642578 l 11.49804,11.5 -0.52148,0.53125 c 0.22314,0.147923 0.39819,0.335039 0.51953,0.550781 l 0.041,-0.03906 5.75976,5.492187 c 3.16781,3.020518 11.2006,10.773483 17.85157,17.228513 9.2703,8.99718 12.71312,11.73633 14.74804,11.73633 4.07718,0 10.16106,-6.21334 14.31446,-14.61719 2.96895,-6.007248 3.73405,-8.812223 4.12304,-15.128903 l 0.47656,-7.753906 9.75196,-10.064453 c 11.01759,-11.369506 12.67765,-15.094672 10.75,-24.132813 C 404.88791,43.233 403.33738,41.149714 394.12708,31.66841 382.87884,20.089208 378.1684,17.04341 371.50013,17.04341 Z" />
      <path
         id="path8"
         style="display:inline;fill:#36464d"
         d="M 327.9707,84.500439 305.48633,107.04536 C 289.32803,123.24643 283,130.23171 283,131.87153 c 0,1.25506 1.31613,3.59739 2.92383,5.20508 5.58919,5.58919 6.15629,5.23355 30.78516,-19.30664 l 22.31054,-22.230469 -5.52539,-5.519531 z" />
    </g>
  </g>
</svg>
