<?xml version="1.0" encoding="UTF-8" standalone="no"?>
<svg
   fill="none"
   viewBox="0 0 24 24"
   stroke-width="1.5"
   stroke="currentColor"
   class="size-6"
   version="1.1"
   id="svg1"
   sodipodi:docname="user.svg"
   inkscape:version="1.4 (e7c3feb100, 2024-10-09)"
   xmlns:inkscape="http://www.inkscape.org/namespaces/inkscape"
   xmlns:sodipodi="http://sodipodi.sourceforge.net/DTD/sodipodi-0.dtd"
   xmlns="http://www.w3.org/2000/svg"
   xmlns:svg="http://www.w3.org/2000/svg">
  <defs
     id="defs1" />
  <sodipodi:namedview
     id="namedview1"
     pagecolor="#ffffff"
     bordercolor="#000000"
     borderopacity="0.25"
     inkscape:showpageshadow="2"
     inkscape:pageopacity="0.0"
     inkscape:pagecheckerboard="0"
     inkscape:deskcolor="#d1d1d1"
     inkscape:zoom="33.458333"
     inkscape:cx="12.014944"
     inkscape:cy="12"
     inkscape:window-width="2560"
     inkscape:window-height="1011"
     inkscape:window-x="0"
     inkscape:window-y="32"
     inkscape:window-maximized="1"
     inkscape:current-layer="svg1" />
  <path
     stroke-linecap="round"
     stroke-linejoin="round"
     d="M17.982 18.725A7.488 7.488 0 0 0 12 15.75a7.488 7.488 0 0 0-5.982 2.975m11.963 0a9 9 0 1 0-11.963 0m11.963 0A8.966 8.966 0 0 1 12 21a8.966 8.966 0 0 1-5.982-2.275M15 9.75a3 3 0 1 1-6 0 3 3 0 0 1 6 0Z"
     id="path1" />
  <path
     style="opacity:0.999568;fill:#9e9e9e;stroke:#9e9e9e;stroke-width:0.0557111"
     d="M 10.969114,21.6812 C 8.122473,21.371132 5.5579439,19.827315 3.9460865,17.453417 3.2390936,16.412179 2.7270999,15.203796 2.4649274,13.957659 2.2994515,13.171132 2.2289344,12.006306 2.2984648,11.20797 2.5013576,8.8783899 3.4846516,6.761812 5.1243563,5.1251304 6.775874,3.4766576 8.8954921,2.4963682 11.234834,2.2991325 c 0.518567,-0.043722 1.512805,-0.020555 1.999929,0.046601 1.832,0.2525614 3.46591,0.9528024 4.892261,2.0966638 0.424864,0.3407195 1.097575,1.0129135 1.431681,1.4305795 1.140129,1.4252764 1.841232,3.0662628 2.100577,4.9165632 0.07395,0.527595 0.07396,1.893143 2.6e-5,2.420922 -0.378393,2.701017 -1.70368,4.974512 -3.834745,6.578403 -1.435338,1.08027 -3.17339,1.747369 -4.972757,1.908644 -0.465391,0.04171 -1.426453,0.03339 -1.882692,-0.01631 z m 2.241347,-1.505221 c 1.202467,-0.18134 2.356028,-0.621705 3.338459,-1.274438 0.184097,-0.122316 0.344281,-0.237859 0.355964,-0.256762 0.01279,-0.0207 -0.09071,-0.143279 -0.260187,-0.308138 -0.986617,-0.959758 -2.351043,-1.608226 -3.772006,-1.792715 -0.455225,-0.0591 -1.290157,-0.0591 -1.745382,0 -1.4209633,0.184489 -2.785389,0.832957 -3.772006,1.792715 -0.1910065,0.185807 -0.2737853,0.286136 -0.2576386,0.312261 0.054185,0.08767 0.7826367,0.530413 1.2560093,0.763379 0.9269189,0.456174 1.8629393,0.721029 2.9060413,0.822289 0.434593,0.04219 1.493335,0.01039 1.950746,-0.05859 z M 6.2480028,17.361415 C 7.4227042,16.228504 8.8611912,15.473999 10.424163,15.170965 10.997566,15.059792 11.374226,15.024873 12,15.024873 c 0.624989,0 1.002479,0.03493 1.573119,0.145562 1.592797,0.308804 3.016652,1.062722 4.226819,2.238061 l 0.233096,0.226388 0.0874,-0.0827 c 0.281057,-0.265933 0.806518,-1.00213 1.123755,-1.574436 0.773099,-1.394695 1.13107,-3.088833 0.98891,-4.680117 C 19.886072,7.4131571 16.952945,4.3374083 13.090909,3.8081608 12.918306,3.7845076 12.548443,3.7567373 12.268991,3.746449 10.008756,3.6632365 7.7970919,4.528615 6.1849112,6.1270237 4.8843847,7.4164402 4.0804809,9.0275316 3.8062077,10.894147 c -0.066253,0.4509 -0.074904,1.678036 -0.014853,2.107098 0.2126124,1.519119 0.7436962,2.829054 1.616126,3.986226 0.1715645,0.22756 0.5289935,0.646402 0.5516226,0.646402 0.00352,0 0.1335204,-0.122606 0.2888995,-0.272458 z"
     id="path2" />
  <path
     style="opacity:0.999568;fill:#9e9e9e;stroke:#9e9e9e;stroke-width:0.0557111"
     d="M 11.551681,13.461612 C 10.08745,13.251012 8.9189633,12.288898 8.4586043,10.914818 8.3345992,10.544688 8.2789539,10.18187 8.2789539,9.743462 c 0,-1.0209434 0.3638192,-1.8970847 1.0871188,-2.6179752 C 10.105208,6.3888136 10.97339,6.0266056 12,6.0266056 c 1.02661,0 1.894792,0.362208 2.633927,1.0988812 0.7233,0.7208905 1.087119,1.5970318 1.087119,2.6179752 0,0.62702 -0.122115,1.144847 -0.399607,1.694526 -0.344446,0.682307 -0.918839,1.265665 -1.58903,1.613828 -0.556844,0.28928 -0.985863,0.39795 -1.627801,0.412321 -0.254795,0.0057 -0.503612,0.0046 -0.552927,-0.0025 z m 1.016189,-1.51665 c 0.776727,-0.219863 1.349808,-0.76326 1.591536,-1.509097 0.109415,-0.337594 0.126601,-0.8510995 0.04053,-1.2110044 C 13.977632,8.2953182 13.185311,7.5981658 12.246325,7.505907 11.527304,7.4352606 10.888923,7.6635505 10.385161,8.1714727 10.093565,8.4654774 9.897071,8.8192386 9.8000655,9.2248606 c -0.086072,0.3599049 -0.068887,0.8734104 0.040528,1.2110044 0.2460975,0.759317 0.9049895,1.367391 1.6435675,1.516805 0.08645,0.01749 0.184083,0.03803 0.21696,0.04564 0.112902,0.02614 0.717391,-0.01107 0.866749,-0.05334 z"
     id="path3" />
</svg>
